<?xml version="1.0" encoding="UTF-8" standalone="no"?>
<!DOCTYPE svg PUBLIC "-//W3C//DTD SVG 1.1//EN"
 "http://www.w3.org/Graphics/SVG/1.1/DTD/svg11.dtd">
<!-- Generated by graphviz version 2.41.20200109.0924 (20200109.0924)
 -->
<!-- Title: eventflow Pages: 1 -->
<svg width="593pt" height="1202pt"
 viewBox="0.00 0.00 592.50 1202.00" xmlns="http://www.w3.org/2000/svg" xmlns:xlink="http://www.w3.org/1999/xlink">
<g id="graph0" class="graph" transform="scale(1 1) rotate(0) translate(4 1198)">
<title>eventflow</title>
<polygon fill="white" stroke="transparent" points="-4,4 -4,-1198 588.5,-1198 588.5,4 -4,4"/>
<!-- WELCOME -->
<g id="node1" class="node">
<title>WELCOME</title>
<polygon fill="none" stroke="black" points="537.5,-1194 450.5,-1194 450.5,-1158 537.5,-1158 537.5,-1194"/>
<text text-anchor="middle" x="494" y="-1172.3" font-family="Times New Roman,serif" font-size="14.00">WELCOME</text>
</g>
<!-- NEW_GAME -->
<g id="node2" class="node">
<title>NEW_GAME</title>
<polygon fill="none" stroke="black" points="502,-1121 406,-1121 406,-1085 502,-1085 502,-1121"/>
<text text-anchor="middle" x="454" y="-1099.3" font-family="Times New Roman,serif" font-size="14.00">NEW_GAME</text>
</g>
<!-- WELCOME&#45;&gt;NEW_GAME -->
<g id="edge1" class="edge">
<title>WELCOME&#45;&gt;NEW_GAME</title>
<path fill="none" stroke="black" d="M484.32,-1157.81C479.6,-1149.44 473.83,-1139.2 468.59,-1129.9"/>
<polygon fill="black" stroke="black" points="471.55,-1128.02 463.59,-1121.03 465.45,-1131.46 471.55,-1128.02"/>
</g>
<!-- LOAD_GAME -->
<g id="node3" class="node">
<title>LOAD_GAME</title>
<polygon fill="none" stroke="black" points="584.5,-1067 481.5,-1067 481.5,-1031 584.5,-1031 584.5,-1067"/>
<text text-anchor="middle" x="533" y="-1045.3" font-family="Times New Roman,serif" font-size="14.00">LOAD_GAME</text>
</g>
<!-- WELCOME&#45;&gt;LOAD_GAME -->
<g id="edge2" class="edge">
<title>WELCOME&#45;&gt;LOAD_GAME</title>
<path fill="none" stroke="black" d="M499.38,-1157.98C502.73,-1147.35 507.13,-1133.38 511,-1121 515.52,-1106.52 520.53,-1090.36 524.63,-1077.13"/>
<polygon fill="black" stroke="black" points="528.08,-1077.81 527.69,-1067.22 521.39,-1075.74 528.08,-1077.81"/>
</g>
<!-- CREATE_PARTY -->
<g id="node4" class="node">
<title>CREATE_PARTY</title>
<polygon fill="none" stroke="black" points="505.5,-1013 380.5,-1013 380.5,-977 505.5,-977 505.5,-1013"/>
<text text-anchor="middle" x="443" y="-991.3" font-family="Times New Roman,serif" font-size="14.00">CREATE_PARTY</text>
</g>
<!-- NEW_GAME&#45;&gt;CREATE_PARTY -->
<g id="edge3" class="edge">
<title>NEW_GAME&#45;&gt;CREATE_PARTY</title>
<path fill="none" stroke="black" d="M452.23,-1084.97C450.51,-1068.38 447.87,-1042.88 445.85,-1023.43"/>
<polygon fill="black" stroke="black" points="449.31,-1022.93 444.8,-1013.34 442.35,-1023.65 449.31,-1022.93"/>
</g>
<!-- START_TURN -->
<g id="node6" class="node">
<title>START_TURN</title>
<polygon fill="none" stroke="black" points="545,-867 437,-867 437,-831 545,-831 545,-867"/>
<text text-anchor="middle" x="491" y="-845.3" font-family="Times New Roman,serif" font-size="14.00">START_TURN</text>
</g>
<!-- LOAD_GAME&#45;&gt;START_TURN -->
<g id="edge6" class="edge">
<title>LOAD_GAME&#45;&gt;START_TURN</title>
<path fill="none" stroke="black" d="M531.76,-1030.9C529.52,-1003.67 523.85,-948.95 512,-904 509.6,-894.91 506.16,-885.26 502.75,-876.68"/>
<polygon fill="black" stroke="black" points="505.88,-875.09 498.83,-867.18 499.41,-877.76 505.88,-875.09"/>
</g>
<!-- PARTY_DONE -->
<g id="node5" class="node">
<title>PARTY_DONE</title>
<polygon fill="none" stroke="black" points="503.5,-940 394.5,-940 394.5,-904 503.5,-904 503.5,-940"/>
<text text-anchor="middle" x="449" y="-918.3" font-family="Times New Roman,serif" font-size="14.00">PARTY_DONE</text>
</g>
<!-- CREATE_PARTY&#45;&gt;PARTY_DONE -->
<g id="edge4" class="edge">
<title>CREATE_PARTY&#45;&gt;PARTY_DONE</title>
<path fill="none" stroke="black" d="M444.45,-976.81C445.13,-968.79 445.95,-959.05 446.71,-950.07"/>
<polygon fill="black" stroke="black" points="450.21,-950.29 447.56,-940.03 443.23,-949.7 450.21,-950.29"/>
</g>
<!-- PARTY_DONE&#45;&gt;START_TURN -->
<g id="edge5" class="edge">
<title>PARTY_DONE&#45;&gt;START_TURN</title>
<path fill="none" stroke="black" d="M459.17,-903.81C464.12,-895.44 470.18,-885.2 475.68,-875.9"/>
<polygon fill="black" stroke="black" points="478.85,-877.42 480.93,-867.03 472.82,-873.85 478.85,-877.42"/>
</g>
<!-- START_MOVEMENT -->
<g id="node7" class="node">
<title>START_MOVEMENT</title>
<polygon fill="none" stroke="black" points="488.5,-794 339.5,-794 339.5,-758 488.5,-758 488.5,-794"/>
<text text-anchor="middle" x="414" y="-772.3" font-family="Times New Roman,serif" font-size="14.00">START_MOVEMENT</text>
</g>
<!-- START_TURN&#45;&gt;START_MOVEMENT -->
<g id="edge7" class="edge">
<title>START_TURN&#45;&gt;START_MOVEMENT</title>
<path fill="none" stroke="black" d="M472.36,-830.81C462.62,-821.83 450.54,-810.69 439.9,-800.89"/>
<polygon fill="black" stroke="black" points="442.19,-798.23 432.47,-794.03 437.45,-803.38 442.19,-798.23"/>
</g>
<!-- END_MOVEMENT -->
<g id="node8" class="node">
<title>END_MOVEMENT</title>
<polygon fill="none" stroke="black" points="476.5,-721 345.5,-721 345.5,-685 476.5,-685 476.5,-721"/>
<text text-anchor="middle" x="411" y="-699.3" font-family="Times New Roman,serif" font-size="14.00">END_MOVEMENT</text>
</g>
<!-- START_MOVEMENT&#45;&gt;END_MOVEMENT -->
<g id="edge8" class="edge">
<title>START_MOVEMENT&#45;&gt;END_MOVEMENT</title>
<path fill="none" stroke="black" d="M413.27,-757.81C412.93,-749.79 412.52,-740.05 412.14,-731.07"/>
<polygon fill="black" stroke="black" points="415.64,-730.87 411.72,-721.03 408.64,-731.17 415.64,-730.87"/>
</g>
<!-- START_ENCOUNTER -->
<g id="node9" class="node">
<title>START_ENCOUNTER</title>
<polygon fill="none" stroke="black" points="487.5,-648 332.5,-648 332.5,-612 487.5,-612 487.5,-648"/>
<text text-anchor="middle" x="410" y="-626.3" font-family="Times New Roman,serif" font-size="14.00">START_ENCOUNTER</text>
</g>
<!-- END_MOVEMENT&#45;&gt;START_ENCOUNTER -->
<g id="edge9" class="edge">
<title>END_MOVEMENT&#45;&gt;START_ENCOUNTER</title>
<path fill="none" stroke="black" d="M410.76,-684.81C410.64,-676.79 410.51,-667.05 410.38,-658.07"/>
<polygon fill="black" stroke="black" points="413.88,-657.98 410.24,-648.03 406.88,-658.08 413.88,-657.98"/>
</g>
<!-- START_CARDPHASE -->
<g id="node10" class="node">
<title>START_CARDPHASE</title>
<polygon fill="none" stroke="black" points="456.5,-575 303.5,-575 303.5,-539 456.5,-539 456.5,-575"/>
<text text-anchor="middle" x="380" y="-553.3" font-family="Times New Roman,serif" font-size="14.00">START_CARDPHASE</text>
</g>
<!-- START_ENCOUNTER&#45;&gt;START_CARDPHASE -->
<g id="edge10" class="edge">
<title>START_ENCOUNTER&#45;&gt;START_CARDPHASE</title>
<path fill="none" stroke="black" d="M402.74,-611.81C399.27,-603.62 395.05,-593.62 391.19,-584.48"/>
<polygon fill="black" stroke="black" points="394.31,-582.88 387.2,-575.03 387.86,-585.6 394.31,-582.88"/>
</g>
<!-- NEXT_ACTION -->
<g id="node11" class="node">
<title>NEXT_ACTION</title>
<polygon fill="none" stroke="black" points="415,-502 301,-502 301,-466 415,-466 415,-502"/>
<text text-anchor="middle" x="358" y="-480.3" font-family="Times New Roman,serif" font-size="14.00">NEXT_ACTION</text>
</g>
<!-- START_CARDPHASE&#45;&gt;NEXT_ACTION -->
<g id="edge11" class="edge">
<title>START_CARDPHASE&#45;&gt;NEXT_ACTION</title>
<path fill="none" stroke="black" d="M374.67,-538.81C372.16,-530.7 369.1,-520.84 366.3,-511.78"/>
<polygon fill="black" stroke="black" points="369.58,-510.54 363.28,-502.03 362.89,-512.62 369.58,-510.54"/>
</g>
<!-- WAITING_FOR_PLAYER_ACTION -->
<g id="node12" class="node">
<title>WAITING_FOR_PLAYER_ACTION</title>
<polygon fill="none" stroke="black" points="236,-429 0,-429 0,-393 236,-393 236,-429"/>
<text text-anchor="middle" x="118" y="-407.3" font-family="Times New Roman,serif" font-size="14.00">WAITING_FOR_PLAYER_ACTION</text>
</g>
<!-- NEXT_ACTION&#45;&gt;WAITING_FOR_PLAYER_ACTION -->
<g id="edge12" class="edge">
<title>NEXT_ACTION&#45;&gt;WAITING_FOR_PLAYER_ACTION</title>
<path fill="none" stroke="black" d="M300.82,-466.08C266.22,-455.85 221.92,-442.74 185.59,-432"/>
<polygon fill="black" stroke="black" points="186.16,-428.51 175.57,-429.03 184.17,-435.23 186.16,-428.51"/>
</g>
<!-- WAITING_FOR_AI_ACTION -->
<g id="node13" class="node">
<title>WAITING_FOR_AI_ACTION</title>
<polygon fill="none" stroke="black" points="451.5,-429 254.5,-429 254.5,-393 451.5,-393 451.5,-429"/>
<text text-anchor="middle" x="353" y="-407.3" font-family="Times New Roman,serif" font-size="14.00">WAITING_FOR_AI_ACTION</text>
</g>
<!-- NEXT_ACTION&#45;&gt;WAITING_FOR_AI_ACTION -->
<g id="edge13" class="edge">
<title>NEXT_ACTION&#45;&gt;WAITING_FOR_AI_ACTION</title>
<path fill="none" stroke="black" d="M356.79,-465.81C356.22,-457.79 355.54,-448.05 354.91,-439.07"/>
<polygon fill="black" stroke="black" points="358.39,-438.76 354.2,-429.03 351.41,-439.25 358.39,-438.76"/>
</g>
<!-- ACTION_DONE -->
<g id="node14" class="node">
<title>ACTION_DONE</title>
<polygon fill="none" stroke="black" points="411,-342 295,-342 295,-306 411,-306 411,-342"/>
<text text-anchor="middle" x="353" y="-320.3" font-family="Times New Roman,serif" font-size="14.00">ACTION_DONE</text>
</g>
<!-- WAITING_FOR_PLAYER_ACTION&#45;&gt;ACTION_DONE -->
<g id="edge14" class="edge">
<title>WAITING_FOR_PLAYER_ACTION&#45;&gt;ACTION_DONE</title>
<path fill="none" stroke="black" d="M165.27,-392.9C203.04,-379.24 256.09,-360.05 296.17,-345.56"/>
<polygon fill="black" stroke="black" points="297.59,-348.76 305.8,-342.07 295.21,-342.18 297.59,-348.76"/>
</g>
<!-- WAITING_FOR_AI_ACTION&#45;&gt;ACTION_DONE -->
<g id="edge15" class="edge">
<title>WAITING_FOR_AI_ACTION&#45;&gt;ACTION_DONE</title>
<path fill="none" stroke="black" d="M353,-392.8C353,-381.16 353,-365.55 353,-352.24"/>
<polygon fill="black" stroke="black" points="356.5,-352.18 353,-342.18 349.5,-352.18 356.5,-352.18"/>
</g>
<!-- NEXT -->
<g id="node15" class="node">
<title>NEXT</title>
<polygon fill="none" stroke="black" points="421,-269 358.49,-251 421,-233 483.51,-251 421,-269"/>
<text text-anchor="middle" x="421" y="-247.3" font-family="Times New Roman,serif" font-size="14.00">has next?</text>
</g>
<!-- ACTION_DONE&#45;&gt;NEXT -->
<g id="edge16" class="edge">
<title>ACTION_DONE&#45;&gt;NEXT</title>
<path fill="none" stroke="black" d="M369.46,-305.81C378.86,-296 390.72,-283.62 400.69,-273.21"/>
<polygon fill="black" stroke="black" points="403.48,-275.35 407.87,-265.71 398.43,-270.51 403.48,-275.35"/>
</g>
<!-- NEXT&#45;&gt;NEXT_ACTION -->
<g id="edge17" class="edge">
<title>NEXT&#45;&gt;NEXT_ACTION</title>
<path fill="none" stroke="black" d="M430.74,-266.44C450.82,-298.16 492.3,-375.35 460,-429 451.61,-442.93 438.29,-453.46 424.01,-461.34"/>
<polygon fill="black" stroke="black" points="422.35,-458.25 415.03,-465.91 425.53,-464.49 422.35,-458.25"/>
<text text-anchor="middle" x="481.5" y="-363.8" font-family="Times New Roman,serif" font-size="14.00">yes</text>
</g>
<!-- END_CARDPHASE -->
<g id="node16" class="node">
<title>END_CARDPHASE</title>
<polygon fill="none" stroke="black" points="488.5,-182 353.5,-182 353.5,-146 488.5,-146 488.5,-182"/>
<text text-anchor="middle" x="421" y="-160.3" font-family="Times New Roman,serif" font-size="14.00">END_CARDPHASE</text>
</g>
<!-- NEXT&#45;&gt;END_CARDPHASE -->
<g id="edge18" class="edge">
<title>NEXT&#45;&gt;END_CARDPHASE</title>
<path fill="none" stroke="black" d="M421,-232.8C421,-221.16 421,-205.55 421,-192.24"/>
<polygon fill="black" stroke="black" points="424.5,-192.18 421,-182.18 417.5,-192.18 424.5,-192.18"/>
<text text-anchor="middle" x="428.5" y="-203.8" font-family="Times New Roman,serif" font-size="14.00">no</text>
</g>
<!-- END_ENCOUNTER -->
<g id="node17" class="node">
<title>END_ENCOUNTER</title>
<polygon fill="none" stroke="black" points="489.5,-109 352.5,-109 352.5,-73 489.5,-73 489.5,-109"/>
<text text-anchor="middle" x="421" y="-87.3" font-family="Times New Roman,serif" font-size="14.00">END_ENCOUNTER</text>
</g>
<!-- END_CARDPHASE&#45;&gt;END_ENCOUNTER -->
<g id="edge19" class="edge">
<title>END_CARDPHASE&#45;&gt;END_ENCOUNTER</title>
<path fill="none" stroke="black" d="M421,-145.81C421,-137.79 421,-128.05 421,-119.07"/>
<polygon fill="black" stroke="black" points="424.5,-119.03 421,-109.03 417.5,-119.03 424.5,-119.03"/>
</g>
<!-- END_TURN -->
<g id="node18" class="node">
<title>END_TURN</title>
<polygon fill="none" stroke="black" points="514,-36 424,-36 424,0 514,0 514,-36"/>
<text text-anchor="middle" x="469" y="-14.3" font-family="Times New Roman,serif" font-size="14.00">END_TURN</text>
</g>
<!-- END_ENCOUNTER&#45;&gt;END_TURN -->
<g id="edge20" class="edge">
<title>END_ENCOUNTER&#45;&gt;END_TURN</title>
<path fill="none" stroke="black" d="M432.62,-72.81C438.4,-64.27 445.49,-53.77 451.88,-44.32"/>
<polygon fill="black" stroke="black" points="454.79,-46.27 457.49,-36.03 448.99,-42.35 454.79,-46.27"/>
</g>
<!-- END_TURN&#45;&gt;START_TURN -->
<g id="edge21" class="edge">
<title>END_TURN&#45;&gt;START_TURN</title>
<path fill="none" stroke="black" d="M489.5,-36.05C502.92,-49.21 518,-68.73 518,-90 518,-777 518,-777 518,-777 518,-792.45 512.35,-808.62 506.21,-821.63"/>
<polygon fill="black" stroke="black" points="502.92,-820.39 501.52,-830.89 509.16,-823.55 502.92,-820.39"/>
</g>
</g>
</svg>
